<?xml version="1.0" standalone="no"?>
<!DOCTYPE svg PUBLIC "-//W3C//DTD SVG 20010904//EN"
 "http://www.w3.org/TR/2001/REC-SVG-20010904/DTD/svg10.dtd">
<svg version="1.0" xmlns="http://www.w3.org/2000/svg"
 width="1024.000000pt" height="1024.000000pt" viewBox="0 0 1024.000000 1024.000000"
 preserveAspectRatio="xMidYMid meet">

<g transform="translate(0.000000,1024.000000) scale(0.100000,-0.100000)"
fill="#000000" stroke="none">
<path d="M5977 6067 l-118 -41 93 -93 c61 -61 95 -89 99 -80 7 12 69 238 69
250 0 12 -22 6 -143 -36z"/>
<path d="M4251 6026 c-8 -9 -10 -122 -9 -397 l3 -383 25 -6 c48 -12 49 -1 50
368 l0 342 330 0 330 0 11 24 c8 17 8 29 0 45 -12 21 -15 21 -370 21 -291 0
-361 -3 -370 -14z"/>
<path d="M5545 5743 c-110 -108 -281 -276 -380 -372 -162 -158 -338 -330 -807
-788 l-145 -142 82 -84 c45 -45 88 -97 95 -114 l14 -31 65 61 c35 34 99 96
141 137 42 41 152 149 246 239 93 90 255 248 359 350 206 201 496 483 643 625
51 49 92 97 92 107 0 16 -185 209 -199 209 -3 0 -96 -89 -206 -197z m225 158
c0 -7 -224 -232 -390 -391 -30 -29 -225 -220 -434 -424 -590 -578 -612 -599
-648 -628 -61 -51 -54 -28 12 34 132 125 1341 1308 1405 1375 40 42 55 51 55
34z m-20 -233 c-74 -73 -216 -211 -315 -308 -99 -96 -344 -335 -543 -530 -447
-436 -535 -520 -542 -514 -2 3 43 51 100 107 58 56 281 273 495 482 215 209
444 433 510 496 66 64 185 180 265 257 80 78 150 141 155 141 6 1 -51 -59
-125 -131z"/>
<path d="M5992 4978 c-9 -9 -12 -104 -12 -365 l0 -353 -330 0 c-315 0 -330 -1
-340 -19 -11 -22 -2 -55 17 -58 26 -6 725 -5 730 0 7 8 5 786 -2 798 -9 13
-49 11 -63 -3z"/>
<path d="M4092 4224 c-23 -52 -42 -99 -42 -104 0 -8 43 2 135 31 22 7 42 13
45 14 49 11 48 13 -21 85 -37 39 -69 70 -71 70 -3 0 -23 -43 -46 -96z"/>
<path d="M4345 4210 c-16 -7 -17 -9 -3 -9 9 -1 20 4 23 9 7 11 7 11 -20 0z"/>
<path d="M6745 3740 c-9 -16 -13 -30 -11 -30 3 0 12 14 21 30 9 17 13 30 11
30 -3 0 -12 -13 -21 -30z"/>
<path d="M3552 3670 c0 -19 2 -27 5 -17 2 9 2 25 0 35 -3 9 -5 1 -5 -18z"/>
<path d="M6704 3666 c-7 -17 -13 -27 -14 -23 0 5 -17 -11 -37 -36 -21 -24 -58
-59 -82 -78 -25 -19 -49 -39 -55 -44 -6 -6 -32 -21 -58 -35 -28 -15 -48 -32
-48 -42 0 -9 -2 -25 -5 -35 -3 -10 1 -4 9 12 12 24 15 26 16 10 1 -18 2 -19 9
-2 4 10 10 18 14 18 3 0 19 6 34 14 14 8 30 12 35 9 5 -3 7 0 6 8 -2 7 3 12
10 11 7 -2 12 7 12 20 0 18 2 19 10 7 8 -13 10 -12 10 3 0 10 4 16 9 12 5 -3
13 4 16 16 6 17 9 19 16 8 7 -11 9 -11 9 -1 0 7 4 11 9 7 6 -3 8 6 5 21 -3 16
-1 23 6 19 6 -3 10 4 11 17 1 23 1 23 9 -2 7 -23 8 -23 9 -3 1 12 6 25 13 29
8 5 9 2 5 -10 -4 -11 -3 -15 4 -11 6 4 8 13 5 21 -3 7 -1 16 4 19 6 4 10 15
10 26 0 11 4 18 8 15 4 -2 13 3 19 13 9 14 8 18 -4 18 -9 0 -21 -14 -29 -31z"/>
<path d="M3570 3663 c0 -13 5 -23 11 -23 5 0 7 -6 3 -12 -4 -7 -4 -10 1 -6 12
11 35 -18 35 -44 0 -16 3 -19 9 -10 6 10 12 5 21 -18 13 -32 35 -54 23 -24 -4
12 -3 15 5 10 7 -4 12 -15 12 -24 0 -9 5 -24 11 -32 8 -12 9 -9 4 10 l-6 25
14 -24 c14 -23 15 -23 20 -5 4 15 5 14 6 -6 1 -20 3 -22 11 -10 8 12 10 10 10
-10 0 -20 2 -22 10 -10 9 13 10 13 10 0 0 -12 2 -12 9 -2 11 18 23 -11 14 -35
-5 -15 -3 -14 10 2 11 13 16 15 17 6 0 -7 6 -11 15 -7 10 3 17 -3 22 -21 6
-25 7 -25 14 -8 7 20 8 20 8 0 1 -15 3 -17 10 -6 7 11 11 9 20 -8 12 -21 30
-24 43 -6 5 6 8 5 8 -4 0 -7 6 -11 15 -7 10 3 15 -1 15 -12 0 -15 2 -15 10 -2
8 12 10 12 11 -5 l0 -20 9 20 9 20 1 -20 1 -20 9 20 9 20 0 -20 c1 -17 3 -17
11 -5 9 13 10 13 10 0 1 -11 4 -10 15 4 15 20 15 20 16 0 0 -18 1 -18 9 1 6
13 9 15 9 5 1 -13 2 -13 11 0 7 11 10 11 10 2 0 -15 31 -12 42 3 4 6 8 1 9
-10 l0 -20 9 20 c5 11 9 15 9 8 1 -7 17 -10 46 -8 29 2 45 -1 45 -9 0 -8 2 -8
8 1 4 6 23 10 45 8 22 -2 37 0 37 7 0 7 5 6 15 -2 12 -10 15 -10 15 1 0 12 2
12 9 0 7 -11 9 -11 14 0 4 11 6 11 6 1 1 -7 6 -10 12 -6 6 3 15 0 20 -7 6 -10
9 -11 9 -1 0 6 11 12 25 12 14 0 25 -6 25 -12 0 -9 4 -8 10 2 9 13 11 13 20 0
5 -8 10 -10 10 -5 0 15 40 16 41 2 0 -7 4 -3 9 8 8 19 9 19 9 1 1 -15 4 -16
16 -6 8 7 15 9 15 4 0 -5 5 -2 10 6 6 9 10 11 10 3 0 -7 7 -10 15 -7 9 4 15 0
15 -7 0 -11 3 -11 10 1 9 13 10 13 10 0 0 -13 1 -13 10 0 9 13 10 13 10 0 0
-13 1 -13 10 0 8 12 10 12 10 1 0 -11 3 -11 15 -1 12 10 15 10 16 -1 0 -8 4
-5 9 6 5 11 9 15 9 9 1 -14 64 -14 73 0 5 7 8 3 9 -9 l0 -20 9 20 c5 11 9 15
9 9 1 -7 23 -11 61 -10 34 0 60 -3 61 -9 0 -5 4 -1 9 10 5 11 9 14 9 8 1 -7 6
-13 12 -13 5 0 7 5 3 12 -5 7 -3 8 7 2 20 -12 69 -13 69 -1 0 6 7 2 15 -9 14
-19 14 -19 15 1 0 11 4 16 8 10 10 -14 82 -15 82 -1 0 6 5 4 10 -4 9 -13 10
-13 10 0 0 13 2 13 9 1 13 -21 41 -22 42 -3 0 14 2 13 9 -3 6 -13 9 -15 9 -5
1 13 2 13 11 0 5 -8 10 -10 10 -4 0 14 52 13 62 -1 4 -6 8 -1 9 10 l0 20 9
-20 9 -20 1 20 c1 16 4 14 15 -10 l14 -30 1 30 c1 25 3 27 9 10 7 -18 8 -18
18 -1 10 18 10 17 18 0 7 -18 8 -18 15 1 8 19 9 19 9 1 1 -15 4 -16 16 -6 12
10 15 10 15 -1 0 -11 2 -11 10 1 9 13 10 13 11 0 0 -10 3 -8 9 5 5 11 9 14 9
7 1 -14 32 -12 43 3 5 6 8 6 8 -1 0 -8 40 -11 125 -10 75 1 127 -3 129 -9 3
-5 5 -1 5 10 1 17 3 18 12 5 8 -12 12 -12 16 -2 4 10 9 9 20 -5 8 -10 12 -12
8 -5 -3 6 -1 12 5 12 6 0 13 -7 17 -16 4 -12 8 -13 14 -3 9 16 61 19 71 4 5
-6 8 -5 8 4 0 11 3 11 15 1 12 -10 15 -10 15 1 0 8 6 5 16 -7 14 -18 15 -18 9
6 -5 22 -4 23 7 9 11 -14 15 -14 26 -2 11 12 17 12 30 1 13 -11 15 -11 9 4 -4
12 -2 15 9 11 7 -3 14 -10 14 -17 1 -6 7 0 14 13 10 17 15 20 19 10 4 -11 8
-10 22 6 9 11 13 13 9 5 -7 -13 -5 -13 8 -2 13 10 17 10 21 0 2 -7 8 0 12 15
4 15 5 30 3 32 -4 4 -42 -6 -133 -35 -18 -6 -451 -10 -1130 -9 -1069 0 -1102
1 -1160 20 -33 11 -67 22 -77 24 -78 18 -271 171 -316 250 -11 19 -11 19 -12
-2z"/>
</g>
</svg>
